<svg width="21" height="21" viewBox="0 0 21 21" fill="none" xmlns="http://www.w3.org/2000/svg">
<path d="M14.1094 7.875C14.653 7.875 15.0938 7.43428 15.0938 6.89062C15.0938 6.34697 14.653 5.90625 14.1094 5.90625C13.5657 5.90625 13.125 6.34697 13.125 6.89062C13.125 7.43428 13.5657 7.875 14.1094 7.875Z" fill="#EFF5F8"/>
<path d="M10.5 7.21875C9.85103 7.21875 9.21663 7.41119 8.67704 7.77174C8.13744 8.13229 7.71687 8.64475 7.46852 9.24432C7.22017 9.84389 7.15519 10.5036 7.2818 11.1401C7.40841 11.7766 7.72092 12.3613 8.17981 12.8202C8.6387 13.2791 9.22336 13.5916 9.85986 13.7182C10.4964 13.8448 11.1561 13.7798 11.7557 13.5315C12.3552 13.2831 12.8677 12.8626 13.2283 12.323C13.5888 11.7834 13.7812 11.149 13.7812 10.5C13.7812 9.62976 13.4355 8.79516 12.8202 8.17981C12.2048 7.56445 11.3702 7.21875 10.5 7.21875ZM10.5 12.63C10.0787 12.63 9.66692 12.5051 9.31664 12.271C8.96637 12.037 8.69336 11.7043 8.53215 11.3151C8.37093 10.9259 8.32875 10.4976 8.41094 10.0845C8.49312 9.67128 8.69599 9.29175 8.99387 8.99387C9.29175 8.69598 9.67128 8.49312 10.0845 8.41094C10.4976 8.32875 10.9259 8.37093 11.3151 8.53215C11.7043 8.69336 12.037 8.96637 12.271 9.31664C12.5051 9.66692 12.63 10.0787 12.63 10.5C12.63 11.0649 12.4056 11.6067 12.0061 12.0061C11.6067 12.4056 11.0649 12.63 10.5 12.63Z" fill="#EFF5F8"/>
<path d="M10.5 5.11984C12.2522 5.11984 12.46 5.12641 13.1518 5.15812C13.5679 5.16306 13.98 5.23946 14.3702 5.38398C14.6533 5.49319 14.9104 5.66045 15.125 5.87501C15.3395 6.08957 15.5068 6.34667 15.616 6.62977C15.7605 7.01998 15.8369 7.43212 15.8419 7.8482C15.8736 8.54 15.8802 8.74781 15.8802 10.5005C15.8802 12.2533 15.8736 12.46 15.8419 13.1518C15.8369 13.5679 15.7605 13.98 15.616 14.3702C15.5068 14.6533 15.3395 14.9104 15.125 15.125C14.9104 15.3395 14.6533 15.5068 14.3702 15.616C13.98 15.7605 13.5679 15.8369 13.1518 15.8419C12.46 15.8736 12.2522 15.8802 10.5 15.8802C8.74781 15.8802 8.54 15.8736 7.8482 15.8419C7.43212 15.8369 7.01998 15.7605 6.62977 15.616C6.34667 15.5068 6.08957 15.3395 5.87501 15.125C5.66045 14.9104 5.49319 14.6533 5.38398 14.3702C5.23946 13.98 5.16306 13.5679 5.15812 13.1518C5.12641 12.46 5.11984 12.2522 5.11984 10.5C5.11984 8.74781 5.12641 8.54 5.15812 7.8482C5.16306 7.43212 5.23946 7.01998 5.38398 6.62977C5.49319 6.34667 5.66045 6.08957 5.87501 5.87501C6.08957 5.66045 6.34667 5.49319 6.62977 5.38398C7.01998 5.23946 7.43212 5.16306 7.8482 5.15812C8.54 5.12641 8.74781 5.11984 10.5 5.11984ZM10.5 3.9375C8.71773 3.9375 8.49406 3.94516 7.79406 3.97688C7.2498 3.98787 6.71134 4.09105 6.20156 4.28203C5.76555 4.45063 5.36958 4.70847 5.03903 5.03903C4.70847 5.36958 4.45063 5.76555 4.28203 6.20156C4.09099 6.71151 3.9878 7.25016 3.97688 7.79461C3.94516 8.49461 3.9375 8.71719 3.9375 10.5C3.9375 12.2828 3.94516 12.5059 3.97688 13.2059C3.98787 13.7502 4.09105 14.2887 4.28203 14.7984C4.45063 15.2344 4.70847 15.6304 5.03903 15.961C5.36958 16.2915 5.76555 16.5494 6.20156 16.718C6.71151 16.909 7.25016 17.0122 7.79461 17.0231C8.49461 17.0548 8.71773 17.0625 10.5 17.0625C12.2823 17.0625 12.5059 17.0548 13.2059 17.0231C13.7504 17.0122 14.289 16.909 14.799 16.718C15.235 16.5494 15.631 16.2915 15.9615 15.961C16.2921 15.6304 16.5499 15.2344 16.7185 14.7984C16.9094 14.2885 17.0124 13.7498 17.0231 13.2054C17.0548 12.5054 17.0625 12.2828 17.0625 10.5C17.0625 8.71719 17.0548 8.49406 17.0231 7.79406C17.0121 7.2498 16.909 6.71134 16.718 6.20156C16.5494 5.76555 16.2915 5.36958 15.961 5.03903C15.6304 4.70847 15.2344 4.45063 14.7984 4.28203C14.2885 4.09117 13.7498 3.98818 13.2054 3.97742C12.5054 3.94461 12.2828 3.9375 10.5 3.9375Z" fill="#EFF5F8"/>
</svg>
