<svg width="21" height="21" viewBox="0 0 21 21" fill="none" xmlns="http://www.w3.org/2000/svg">
<path d="M12.6 8.39993C12.0498 8.39817 11.5045 8.49719 10.9955 8.69131C10.4865 8.88543 10.0237 9.17084 9.63358 9.53122C9.24348 9.8916 8.93374 10.3199 8.72207 10.7915C8.5104 11.2632 8.40097 11.7689 8.40002 12.2799V16.1999C8.40002 16.359 8.4681 16.5116 8.58928 16.6242C8.71046 16.7367 8.87481 16.7999 9.04618 16.7999H10.5539C10.7252 16.7999 10.8896 16.7367 11.0108 16.6242C11.1319 16.5116 11.2 16.359 11.2 16.1999V12.2799C11.1999 12.0982 11.241 11.9185 11.3207 11.7525C11.4003 11.5865 11.5168 11.4379 11.6624 11.3165C11.8081 11.1951 11.9796 11.1036 12.1659 11.0479C12.3522 10.9922 12.5491 10.9736 12.7436 10.9933C13.0925 11.0341 13.4132 11.1924 13.6448 11.4381C13.8764 11.6839 14.0028 12 14 12.3266V16.1999C14 16.359 14.0681 16.5116 14.1893 16.6242C14.3105 16.7367 14.4748 16.7999 14.6462 16.7999H16.1539C16.3252 16.7999 16.4896 16.7367 16.6108 16.6242C16.7319 16.5116 16.8 16.359 16.8 16.1999V12.2799C16.7991 11.7689 16.6896 11.2632 16.478 10.7915C16.2663 10.3199 15.9566 9.8916 15.5665 9.53122C15.1764 9.17084 14.7136 8.88543 14.2046 8.69131C13.6955 8.49719 13.1503 8.39817 12.6 8.39993Z" fill="#EFF5F8"/>
<path d="M6.71995 8.3999H4.82995C4.48201 8.3999 4.19995 8.68919 4.19995 9.04606V16.1537C4.19995 16.5106 4.48201 16.7999 4.82995 16.7999H6.71995C7.06789 16.7999 7.34995 16.5106 7.34995 16.1537V9.04606C7.34995 8.68919 7.06789 8.3999 6.71995 8.3999Z" fill="#EFF5F8"/>
<path d="M5.77495 7.3502C6.6448 7.3502 7.34995 6.64504 7.34995 5.7752C7.34995 4.90535 6.6448 4.2002 5.77495 4.2002C4.9051 4.2002 4.19995 4.90535 4.19995 5.7752C4.19995 6.64504 4.9051 7.3502 5.77495 7.3502Z" fill="#EFF5F8"/>
</svg>
