<svg width="21" height="21" viewBox="0 0 21 21" fill="none" xmlns="http://www.w3.org/2000/svg">
<path d="M7.8225 16.3664C8.931 16.3734 10.0298 16.1602 11.0553 15.7392C12.0808 15.3182 13.0125 14.6978 13.7963 13.914C14.5801 13.1301 15.2006 12.1985 15.6215 11.173C16.0425 10.1475 16.2557 9.04869 16.2487 7.94019V7.553C16.8234 7.13201 17.3207 6.61468 17.7188 6.02394C17.1777 6.26058 16.6052 6.41752 16.0191 6.48988C16.6405 6.11961 17.1067 5.53678 17.3316 4.84925C16.7524 5.1967 16.1174 5.44095 15.4547 5.57112C15.0084 5.09558 14.4178 4.78038 13.7743 4.67428C13.1309 4.56819 12.4704 4.67712 11.895 4.98421C11.3197 5.29131 10.8616 5.77945 10.5916 6.37311C10.3216 6.96678 10.2549 7.63286 10.4016 8.26831C9.22427 8.21053 8.07234 7.90542 7.0208 7.37286C5.96925 6.84031 5.04166 6.09224 4.29844 5.17737C3.92367 5.82783 3.81007 6.5964 3.98065 7.32746C4.15124 8.05852 4.59324 8.69745 5.21719 9.11488C4.7569 9.09712 4.30727 8.97122 3.90469 8.74738V8.78019C3.9006 9.45995 4.1296 10.1206 4.55352 10.652C4.97745 11.1834 5.57069 11.5535 6.23438 11.7005C5.80626 11.8156 5.35782 11.8336 4.92188 11.753C5.11402 12.3327 5.48079 12.8388 5.97191 13.2019C6.46302 13.5649 7.05442 13.7671 7.665 13.7808C6.62105 14.6212 5.32356 15.0837 3.98344 15.0933C3.74847 15.0865 3.51405 15.0668 3.28125 15.0343C4.63769 15.8985 6.21417 16.3541 7.8225 16.3468" fill="#EFF5F8"/>
</svg>
