<svg width="32" height="32" viewBox="0 0 32 32" fill="none" xmlns="http://www.w3.org/2000/svg">
<g clip-path="url(#clip0_856_253)">
<path d="M2 0H30C30.5304 0 31.0391 0.210714 31.4142 0.585786C31.7893 0.960859 32 1.46957 32 2V30C32 30.5304 31.7893 31.0391 31.4142 31.4142C31.0391 31.7893 30.5304 32 30 32H2C1.46957 32 0.960859 31.7893 0.585786 31.4142C0.210714 31.0391 0 30.5304 0 30V2C0 1.46957 0.210714 0.960859 0.585786 0.585786C0.960859 0.210714 1.46957 0 2 0Z" fill="#0F0E0E"/>
<path d="M13 21H16.863V17.248H18.03C18.4403 17.248 18.8465 17.1672 19.2255 17.0102C19.6045 16.8532 19.9489 16.6231 20.239 16.333C20.5291 16.0429 20.7592 15.6985 20.9162 15.3195C21.0732 14.9405 21.154 14.5342 21.154 14.124C21.154 13.7138 21.0732 13.3075 20.9162 12.9285C20.7592 12.5495 20.5291 12.2051 20.239 11.915C19.9489 11.6249 19.6045 11.3948 19.2255 11.2378C18.8465 11.0808 18.4403 11 18.03 11H13V21ZM18.863 23H11V9H18.03C19.3168 8.99975 20.5566 9.48368 21.503 10.3556C22.4493 11.2275 23.033 12.4236 23.1379 13.7061C23.2429 14.9886 22.8614 16.2637 22.0694 17.2778C21.2774 18.292 20.1327 18.9711 18.863 19.18V23Z" fill="white"/>
</g>
<defs>
<clipPath id="clip0_856_253">
<rect width="32" height="32" rx="5" fill="white"/>
</clipPath>
</defs>
</svg>
